<svg width="267" height="268" viewBox="0 0 267 268" fill="none" xmlns="http://www.w3.org/2000/svg">
<path d="M216.961 238.944C215.977 239.127 215.33 239.731 214.852 240.561C200.206 251.206 184.169 258.997 166.712 263.82C159.459 265.058 152.22 266.309 144.968 267.547C144.11 267.42 143.239 267.238 142.466 267.87C142.466 267.87 142.03 267.856 142.044 267.856C135.255 267.716 128.452 267.575 121.663 267.449C113.905 266.07 106.132 264.706 98.3732 263.328C82.2795 258.35 67.2682 251.122 53.4656 241.447C52.2568 239.872 50.7247 238.733 48.9537 237.875C42.1789 231.617 35.6851 225.078 29.4866 218.244C28.8681 216.739 27.9686 215.459 26.6052 214.531C16.7662 200.483 9.3449 185.267 4.59409 168.772C3.21664 161.009 1.82512 153.247 0.447663 145.484C0.447663 137.806 0.433594 130.128 0.433594 122.436V122.422C1.15043 121.817 1.05206 121.086 0.799054 120.313C2.13434 113.225 3.46959 106.152 4.80488 99.0641C9.90707 82.0907 17.5534 66.3829 28.2075 52.1798C28.6152 51.5891 29.0368 50.9985 29.4444 50.4219C35.9663 43.2782 42.7552 36.4016 49.9517 29.9329C50.5279 29.511 51.1183 29.0891 51.6945 28.6813C65.8767 18.1485 81.4784 10.4422 98.3873 5.36568C106.216 3.94537 114.045 2.53913 121.874 1.11882C129.507 1.06257 137.125 1.02036 144.757 0.964111H144.785C145.066 1.49849 145.488 1.52663 145.98 1.28756C152.951 2.46881 159.923 3.66412 166.894 4.84537C184.281 9.76725 200.291 17.4875 214.909 28.1188C214.993 28.7094 215.344 28.9485 215.921 28.9063C216.567 29.3985 217.2 29.9047 217.846 30.3969C218.099 30.5657 218.366 30.7485 218.619 30.9172C225.464 37.4 232.197 44.0094 238.367 51.1532C238.747 52.4329 239.717 53.2344 240.715 54.0079C250.357 67.8313 257.553 82.8501 262.67 98.8813C264.033 106.658 265.396 114.434 266.76 122.197C266.788 129.988 266.802 137.792 266.83 145.583C265.439 153.683 264.047 161.769 262.656 169.869C258.031 182.989 253.14 195.969 245.227 207.556C243.779 209.68 242.472 211.888 241.094 214.067C239.984 215.08 238.761 215.994 238.353 217.555C237.861 218.173 237.369 218.792 236.863 219.425C236.667 219.678 236.456 219.931 236.259 220.17C230.693 225.739 225.141 231.308 219.575 236.863C219.322 237.073 219.083 237.284 218.83 237.495C217.945 237.664 217.354 238.156 216.961 238.944ZM145.122 10.3016C142.564 9.27507 139.908 9.54222 137.251 9.69691C133.667 9.31722 130.083 9.33128 126.513 9.78128C116.87 10.1188 107.467 11.75 98.303 14.7594C80.3118 19.8922 64.3165 28.5547 50.7106 41.5063C46.9016 44.1922 43.6969 47.4828 40.956 51.2235C28.0389 64.8922 19.2822 80.8813 14.18 98.9235C11.6079 106.475 10.0476 114.223 9.72435 122.211C8.50151 130.03 8.52964 137.863 9.65409 145.695C9.87898 153.036 11.144 160.194 13.5757 167.141C18.0594 185.591 26.9004 201.706 39.5223 215.811C42.6848 220.17 46.4096 223.995 50.7668 227.188C64.4008 240.013 80.2977 248.816 98.303 253.822C105.907 256.395 113.666 258.111 121.72 258.336C129.492 259.602 137.265 259.63 145.038 258.392C153.064 258.294 160.766 256.423 168.398 254.145C185.926 249.139 201.654 240.884 215.119 228.467C220.053 224.895 224.256 220.578 227.91 215.698C240.195 202.17 248.544 186.505 253.449 168.955C255.796 161.333 257.553 153.598 257.722 145.569C258.945 137.792 258.875 130.03 257.652 122.253C257.272 114.238 255.825 106.447 253.042 98.9094C250.75 88.1094 245.311 78.7438 239.815 69.3501C235.978 62.811 231.902 56.5391 226.392 51.2797C223.258 46.8219 219.21 43.2782 214.993 39.8891C201.415 27.8516 185.912 19.3578 168.398 14.5766C160.822 12.1297 153.106 10.4844 145.122 10.2876V10.3016Z" fill="#E7388C"/>
<path d="M213.756 71.2486C215.232 73.4705 217.087 75.2986 219.266 76.8173C221.065 79.9673 220.32 82.4986 217.649 84.833C215.864 86.3798 214.374 88.2783 212.744 90.0079C210.228 91.9205 208.007 94.1423 206.081 96.6595C200.262 101.961 194.654 107.474 189.426 113.352C186.896 115.25 184.689 117.486 182.749 119.989C176.93 125.291 171.322 130.803 166.093 136.681C163.563 138.58 161.356 140.816 159.417 143.319C153.598 148.62 147.99 154.133 142.761 160.011C140.231 161.91 138.024 164.145 136.084 166.649C130.265 171.95 124.657 177.463 119.429 183.341C116.898 185.239 114.692 187.475 112.752 189.978C108.915 193.663 105.078 197.361 101.226 201.045C98.6402 201.425 96.7286 200.356 94.9717 198.5C92.8211 196.236 90.4458 194.169 88.1547 192.003C84.0364 187.292 79.651 182.849 74.9142 178.756L74.844 178.658C74.8721 178.053 74.5629 177.772 73.9725 177.744L73.9023 177.674C73.8742 177.111 73.6071 176.802 73.0308 176.802C70.29 173.638 67.4647 170.53 64.1054 167.984C60.3526 163.569 56.2765 159.477 51.8349 155.736C51.8771 155.441 51.7505 155.286 51.4554 155.272C51.4975 154.681 51.1743 154.428 50.6261 154.4L50.5559 154.33C50.5278 153.767 50.2607 153.458 49.6844 153.458C47.1263 150.8 44.5681 148.156 42.01 145.499C41.4759 142.883 42.4458 140.886 44.3292 139.044C46.8452 136.597 49.1643 133.953 51.5678 131.394C54.5476 129.06 57.2604 126.472 59.5514 123.449C62.6296 121.972 64.9628 122.928 67.282 125.291C77.0085 135.191 86.9177 144.894 96.6161 154.822C98.6683 156.917 99.9615 157.241 101.957 154.892C104.431 151.967 107.214 149.281 109.857 146.497C114.439 142.602 118.684 138.383 122.549 133.77C126.484 130.62 129.998 127.063 133.175 123.153C137.757 119.258 142.002 115.039 145.867 110.427C149.817 107.291 153.289 103.691 156.507 99.8235C161.061 95.9001 165.362 91.7236 169.2 87.097C173.163 83.9751 176.621 80.3611 179.84 76.4939C184.38 72.5564 188.695 68.4079 192.532 63.7673C193.052 63.4017 193.614 63.1064 194.064 62.6704C199.04 57.9454 199.827 57.9454 204.606 62.6142C207.684 65.5392 210.734 68.3798 213.756 71.2486Z" fill="#E7388C"/>
</svg>
