<svg width="90" height="91" viewBox="0 0 90 91" fill="none" xmlns="http://www.w3.org/2000/svg">
<path d="M72.783 80.5423C72.4597 80.5985 72.2348 80.8095 72.0802 81.0767C67.1888 84.6345 61.8196 87.236 55.9865 88.8532C53.5689 89.2751 51.1373 89.6829 48.7197 90.1048C48.4246 90.0626 48.1434 90.0063 47.8904 90.2173H47.7499C45.4729 90.1751 43.21 90.1188 40.933 90.0767C38.3327 89.6126 35.7464 89.1626 33.1461 88.6986C27.7628 87.0392 22.7449 84.6204 18.1347 81.386C17.7271 80.8657 17.2211 80.472 16.6307 80.1907C14.3678 78.0954 12.1891 75.9157 10.123 73.6236C9.91212 73.1173 9.61695 72.6954 9.15312 72.386C5.8641 67.6892 3.39032 62.5985 1.78798 57.086C1.32414 54.4845 0.86032 51.897 0.396484 49.2954C0.396484 46.722 0.396484 44.1626 0.396484 41.5892C0.63543 41.3923 0.607357 41.1392 0.523023 40.8861C0.972803 38.5236 1.40846 36.147 1.85824 33.7845C3.55897 28.1032 6.11709 22.8579 9.67317 18.1189C9.81372 17.922 9.95433 17.7251 10.0808 17.5282C12.2595 15.1376 14.5365 12.8454 16.94 10.6798C17.1368 10.5392 17.3335 10.3986 17.5303 10.2579C22.267 6.74232 27.4817 4.16887 33.132 2.46731C35.7464 1.98919 38.3608 1.52511 40.9892 1.04698C43.5332 1.03292 46.0914 1.01885 48.6354 0.990723H48.6495C48.7479 1.17354 48.8884 1.18762 49.0571 1.10325C51.3903 1.497 53.7236 1.89076 56.0428 2.29857C61.8477 3.94388 67.2029 6.51732 72.0943 10.0751C72.1224 10.272 72.2348 10.3564 72.4316 10.3423C72.6424 10.5111 72.8533 10.6798 73.0782 10.8485C73.1625 10.9048 73.2468 10.961 73.3312 11.0173C75.6222 13.1829 77.8712 15.3907 79.9373 17.7813C80.0638 18.2173 80.3871 18.4704 80.7244 18.7376C83.9432 23.3642 86.3607 28.3845 88.0614 33.7423C88.5112 36.3439 88.9751 38.9454 89.4249 41.5329C89.4389 44.1345 89.4389 46.7501 89.4529 49.3517C88.9891 52.0517 88.5253 54.7657 88.0614 57.4657C86.5153 61.8532 84.8849 66.1845 82.2424 70.0658C81.7645 70.7689 81.3148 71.5142 80.865 72.2454C80.4995 72.5829 80.0919 72.8923 79.9513 73.4126C79.7827 73.6235 79.614 73.8345 79.4594 74.0313C79.3891 74.1157 79.3188 74.2001 79.2626 74.2845C77.4073 76.1407 75.552 78.0111 73.6826 79.8673C73.5982 79.9376 73.5139 80.0079 73.4296 80.0782C73.1063 80.1204 72.9095 80.2892 72.783 80.5423ZM48.762 4.1126C47.9046 3.7751 47.019 3.8595 46.1335 3.91575C44.9387 3.78918 43.744 3.78917 42.5493 3.94386C39.3306 4.05636 36.1822 4.60478 33.118 5.60322C27.1022 7.31884 21.7611 10.2157 17.2071 14.547C15.942 15.447 14.8597 16.5439 13.9461 17.7954C9.63105 22.3657 6.69343 27.7095 4.9927 33.7423C4.13531 36.2735 3.61525 38.861 3.50281 41.5189C3.0952 44.1345 3.10922 46.7501 3.47467 49.3657C3.54495 51.8267 3.96661 54.2173 4.78183 56.5376C6.28579 62.711 9.23745 68.097 13.4541 72.8079C14.5083 74.2704 15.7593 75.536 17.2071 76.6048C21.7611 80.8939 27.0741 83.8329 33.104 85.5063C35.648 86.3642 38.2343 86.9407 40.933 87.011C43.5333 87.4329 46.1335 87.447 48.7338 87.0251C51.4184 86.997 53.9906 86.3642 56.5487 85.6048C62.4099 83.9314 67.6667 81.1751 72.1645 77.0267C73.809 75.8313 75.2146 74.3829 76.4374 72.7657C80.5417 68.2517 83.3387 63.0064 84.9692 57.1423C85.7563 54.597 86.3467 52.0095 86.4029 49.3236C86.8105 46.722 86.7824 44.1204 86.3748 41.5329C86.2483 38.8611 85.7704 36.2454 84.8287 33.7282C84.0556 30.1142 82.2424 26.9923 80.4011 23.8423C79.122 21.6485 77.7587 19.5673 75.9174 17.8095C74.8632 16.3189 73.5139 15.1376 72.1083 13.9985C67.5684 9.97666 62.3818 7.13605 56.5347 5.53292C54.0047 4.73136 51.4185 4.18291 48.762 4.1126Z" fill="#E7388C"/>
<path d="M71.7013 24.4893C72.1932 25.2346 72.8117 25.8392 73.5426 26.3455C74.147 27.4002 73.894 28.244 72.9945 29.0174C72.4041 29.5377 71.8981 30.1705 71.3499 30.7471C70.5065 31.3799 69.7617 32.1252 69.1292 32.969C67.1895 34.7408 65.306 36.583 63.5631 38.5518C62.7197 39.1846 61.9747 39.9299 61.3282 40.7736C59.3885 42.5455 57.5051 44.3877 55.7622 46.3564C54.9189 46.9892 54.1739 47.7346 53.5273 48.5783C51.5876 50.3502 49.7042 52.1924 47.9613 54.1611C47.118 54.7939 46.373 55.5392 45.7264 56.383C43.7868 58.1549 41.9033 59.9971 40.1604 61.9658C39.317 62.5986 38.5721 63.3439 37.9256 64.1877C36.6465 65.4252 35.3534 66.6486 34.0743 67.8861C33.2169 68.0127 32.5704 67.647 31.98 67.0423C31.2632 66.283 30.462 65.5939 29.7029 64.8767C28.3255 63.3017 26.8638 61.8111 25.2755 60.447L25.2473 60.4189C25.2614 60.222 25.149 60.1236 24.9522 60.1095L24.9241 60.0814C24.91 59.8986 24.8256 59.7861 24.6289 59.7861C23.7153 58.7314 22.7735 57.6908 21.6491 56.833C20.3981 55.3564 19.0347 53.9924 17.5448 52.7408C17.5589 52.6424 17.5167 52.5861 17.4183 52.5861C17.4324 52.3892 17.32 52.3049 17.1373 52.2908L17.1091 52.2627C17.0951 52.0799 17.0107 51.9674 16.8139 51.9674C15.9565 51.0814 15.0991 50.1955 14.2558 49.3096C14.0731 48.4377 14.3964 47.7627 15.0289 47.158C15.8723 46.3424 16.6453 45.4564 17.4464 44.5986C18.4444 43.8252 19.344 42.9533 20.1171 41.9408C21.1431 41.4486 21.9302 41.7721 22.7033 42.5596C25.9501 45.8643 29.2672 49.1127 32.5141 52.4314C33.2028 53.1346 33.6386 53.247 34.2992 52.4595C35.1285 51.4752 36.0561 50.5892 36.9416 49.647C38.4737 48.3392 39.8934 46.933 41.1865 45.3861C42.5077 44.3314 43.6743 43.1502 44.7425 41.8424C46.2746 40.5346 47.6942 39.1283 48.9874 37.5815C50.3086 36.5408 51.4752 35.3314 52.5434 34.0377C54.0614 32.7299 55.4951 31.3377 56.7882 29.7767C58.1095 28.7361 59.2761 27.5268 60.3444 26.233C61.8624 24.9252 63.296 23.533 64.5891 21.9862C64.7578 21.8596 64.9546 21.7611 65.1092 21.6205C66.7677 20.0455 67.0348 20.0455 68.6371 21.6064C69.6773 22.5768 70.7033 23.533 71.7013 24.4893Z" fill="#E7388C"/>
</svg>
