<svg width="212" height="39" viewBox="0 0 212 39" fill="none" xmlns="http://www.w3.org/2000/svg">
<path d="M165.975 22.7642C165.975 22.7642 164.415 30.2735 171.977 34.197C171.977 34.197 161.407 32.5657 165.975 22.7642Z" fill="#E7388C"/>
<path d="M172.863 38.1063C166.411 38.1063 161.154 32.847 161.154 26.3923C161.154 19.9376 166.411 14.6782 172.863 14.6782C179.314 14.6782 184.571 19.9376 184.571 26.3923C184.571 32.861 179.314 38.1063 172.863 38.1063ZM172.863 16.4642C167.395 16.4642 162.939 20.922 162.939 26.3923C162.939 31.8626 167.395 36.3204 172.863 36.3204C178.33 36.3204 182.786 31.8626 182.786 26.3923C182.786 20.922 178.33 16.4642 172.863 16.4642Z" fill="#E7388C"/>
<path d="M176.868 14.0876C176.868 14.0876 186.075 15.283 186.272 26.4064C186.272 26.4064 189.533 16.0423 176.868 14.0876Z" fill="#E7388C"/>
<path d="M161.407 18.8547C161.407 18.8547 161.182 9.58753 162.054 8.33596C162.911 7.09846 164.879 5.66409 176.236 6.70471C176.236 6.70471 166.833 6.11409 164.556 9.71409C162.279 13.3141 161.407 18.8547 161.407 18.8547Z" fill="#E7388C"/>
<path d="M176.868 9.25008C176.868 9.25008 180.003 3.17508 182.814 1.67039C185.625 0.165701 191.894 1.02352 193.131 3.37195C194.368 5.72039 195.028 8.01258 198.416 8.92664C201.803 9.8407 202.928 10.9798 203.068 11.9641C203.209 12.9485 203.251 14.0876 203.251 14.0876H201.958C201.958 14.0876 202.604 11.0782 197.502 9.91102C197.502 9.91102 194.424 9.10945 192.273 5.27039C192.33 5.27039 189.027 -0.706174 182.449 3.66726C180.902 4.69383 181.647 3.85008 176.868 9.25008Z" fill="#E7388C"/>
<path d="M16.9576 19.6985C14.9757 19.6985 13.4296 20.3876 12.3332 21.7517C11.2369 23.1157 10.8855 24.7751 11.265 26.7157C11.7007 28.8532 11.5743 30.822 10.8855 32.636C10.2109 34.436 9.0583 35.8563 7.47001 36.897C5.86767 37.9376 3.98417 38.4579 1.80554 38.4579L0.793579 33.7751C2.76137 33.7751 4.30745 33.086 5.40379 31.7079C6.50013 30.3298 6.85153 28.6704 6.47203 26.7157C5.82547 23.4673 6.40174 20.697 8.21492 18.4329C10.0281 16.1548 12.6003 15.0298 15.9034 15.0298L16.9576 19.6985Z" fill="#020203"/>
<path d="M24.1119 8.63135V17.6876C25.9532 15.9298 28.1177 15.0579 30.5915 15.0579C32.5593 15.0579 34.3304 15.6204 35.9327 16.7454C37.5351 17.8704 38.7719 19.4032 39.6715 21.3298C40.557 23.2563 41.0068 25.3798 41.0068 27.7001V37.8392H36.1014V26.772C36.1014 24.8454 35.5251 23.2001 34.3585 21.836C33.1919 20.472 31.7722 19.797 30.1137 19.797C28.4551 19.797 27.0354 20.472 25.8688 21.836C24.7022 23.2001 24.1259 24.8313 24.1259 26.772V37.8392H19.2767V8.63135H24.1119Z" fill="#020203"/>
<path d="M61.4998 15.8314C63.3692 16.9002 64.845 18.3768 65.9273 20.2471C67.0096 22.1174 67.5296 24.1424 67.4874 26.3361C67.4312 27.9814 67.0939 29.5424 66.4614 31.033C65.8289 32.5236 64.9715 33.8174 63.9033 34.9002C62.835 35.983 61.556 36.8549 60.0943 37.4877C58.6184 38.1205 57.0723 38.4439 55.4278 38.4439C53.2492 38.4439 51.2251 37.9096 49.3557 36.8268C47.4863 35.758 46.0105 34.2814 44.9282 32.4111C43.8459 30.5408 43.3259 28.5158 43.368 26.3221C43.4243 24.6627 43.7616 23.0877 44.3941 21.5971C45.0266 20.1064 45.884 18.8268 46.9381 17.7439C48.0064 16.6611 49.2714 15.8033 50.7472 15.1564C52.2231 14.5236 53.7833 14.2002 55.4137 14.2002C57.5923 14.2143 59.6304 14.7627 61.4998 15.8314ZM50.3397 21.1893C48.9481 22.6096 48.2313 24.3252 48.1891 26.3361C48.1329 28.333 48.8357 30.0486 50.2553 31.4689C51.689 32.9033 53.4037 33.6064 55.3996 33.6064C57.3955 33.6064 59.0963 32.8893 60.4878 31.4689C61.8793 30.0486 62.5961 28.333 62.6383 26.3221C62.6945 24.3252 61.9917 22.6096 60.558 21.1893C59.1244 19.7549 57.3955 19.0518 55.3856 19.0518C53.4178 19.0518 51.7312 19.7689 50.3397 21.1893Z" fill="#020203"/>
<path d="M88.0368 15.8314C89.9062 16.9002 91.3821 18.3768 92.4644 20.2471C93.5467 22.1174 94.0667 24.1424 94.0245 26.3361C93.9683 27.9814 93.631 29.5424 92.9985 31.033C92.366 32.5236 91.5086 33.8174 90.4404 34.9002C89.3722 35.983 88.0931 36.8549 86.6313 37.4877C85.1554 38.1205 83.6094 38.4439 81.9649 38.4439C79.7863 38.4439 77.7622 37.9096 75.8928 36.8268C74.0235 35.758 72.5476 34.2814 71.4653 32.4111C70.383 30.5408 69.863 28.5158 69.9051 26.3221C69.9614 24.6627 70.2987 23.0877 70.9312 21.5971C71.5637 20.1064 72.4211 18.8268 73.4752 17.7439C74.5294 16.6611 75.8085 15.8033 77.2843 15.1564C78.7602 14.5236 80.3204 14.2002 81.9508 14.2002C84.1435 14.2143 86.1674 14.7627 88.0368 15.8314ZM76.8768 21.1893C75.4853 22.6096 74.7684 24.3252 74.7262 26.3361C74.67 28.333 75.3727 30.0486 76.8064 31.4689C78.2401 32.9033 79.9549 33.6064 81.9508 33.6064C83.9467 33.6064 85.6474 32.8893 87.0389 31.4689C88.4305 30.0486 89.1472 28.333 89.1894 26.3221C89.2456 24.3252 88.5429 22.6096 87.1092 21.1893C85.6755 19.7549 83.9467 19.0518 81.9367 19.0518C79.9549 19.0518 78.2683 19.7689 76.8768 21.1893Z" fill="#020203"/>
<path d="M104.96 38.458C102.992 38.458 101.46 37.6845 100.322 36.1376C99.1971 34.5908 98.6349 32.7626 98.6349 30.6533V19.2064H96.3859V15.6908H98.6349V8.60327H103.47V15.6908H107.63V19.2064H103.47V30.1189C103.47 33.2126 104.749 34.4361 107.307 33.8173L108.46 37.6705C107.307 38.1908 106.141 38.458 104.96 38.458Z" fill="#020203"/>
<path d="M131.075 21.3298C132.045 23.2704 132.523 25.3938 132.523 27.7001V37.8392H127.589V26.772C127.589 24.8313 127.013 23.172 125.847 21.822C124.68 20.4579 123.26 19.7829 121.602 19.7829C119.929 19.7829 118.51 20.4579 117.357 21.822C116.19 23.186 115.614 24.8313 115.614 26.772V37.8392H110.765V27.7001C110.765 25.3938 111.243 23.2704 112.213 21.3298C113.182 19.3892 114.504 17.8423 116.176 16.7173C117.849 15.5923 119.676 15.0298 121.658 15.0298C123.64 15.0298 125.467 15.5923 127.126 16.7173C128.784 17.8423 130.105 19.3892 131.075 21.3298Z" fill="#020203"/>
<path d="M139.649 8.63135L139.635 17.8563C140.521 17.0126 141.631 16.3235 142.938 15.8032C144.245 15.2829 145.567 15.0157 146.888 15.0157C150.36 15.0157 153.213 16.1407 155.462 18.4048C157.711 20.6688 158.877 23.4392 158.962 26.7579C159.004 28.8673 158.484 30.822 157.401 32.636C156.319 34.4501 154.857 35.8704 152.974 36.911C151.09 37.9517 149.066 38.472 146.874 38.472C144.681 38.472 142.657 37.9517 140.816 36.911C138.975 35.8704 137.513 34.4501 136.43 32.636C135.348 30.822 134.814 28.8673 134.814 26.7579C134.814 14.186 134.772 11.0923 134.758 8.64541H139.649V8.63135ZM141.743 21.7798C140.31 23.1579 139.621 24.8173 139.663 26.7438C139.719 28.6845 140.436 30.3438 141.828 31.7079C143.219 33.072 144.92 33.761 146.902 33.761C148.912 33.761 150.641 33.072 152.074 31.6938C153.508 30.3157 154.197 28.6704 154.155 26.7438C154.112 24.8032 153.396 23.1438 152.004 21.7657C150.613 20.3876 148.912 19.7126 146.916 19.7126C144.878 19.6985 143.163 20.3876 141.743 21.7798Z" fill="#020203"/>
<path d="M192.906 15.6907L198.107 22.5251L203.279 15.6907H209.871L201.311 26.111L211.206 37.8251H204.558L198.107 30.2032L191.641 37.8251H184.993L194.86 26.111L186.3 15.6907H192.906Z" fill="#020203"/>
</svg>
