<svg width="43" height="37" viewBox="0 0 43 37" fill="none" xmlns="http://www.w3.org/2000/svg">
<path d="M14.5221 30.351C14.4799 30.2807 14.4518 30.2526 14.4658 30.2244C14.6486 28.8323 13.8755 28.0307 12.737 27.4963C12.2591 27.2713 12.3294 27.0885 12.5543 26.7088C15.1124 22.6026 18.2468 18.9745 21.6764 15.5854C27.5516 9.79164 34.0453 4.78539 40.9466 0.29945C41.031 0.2432 41.1153 0.201012 41.1856 0.144762C41.4948 -0.052113 41.804 -0.0661712 42.0711 0.215079C42.3381 0.496329 42.296 0.791637 42.0992 1.10101C41.0872 2.70414 40.019 4.26507 38.9226 5.81195C35.3525 10.8463 31.5013 15.6557 27.1862 20.0854C23.5036 23.8541 19.568 27.2994 15.0421 30.0276C14.8734 30.1401 14.7048 30.2385 14.5221 30.351Z" fill="#E7326A"/>
<path d="M1.60476 32.0806C2.99627 32.2775 3.95205 31.6869 4.697 30.5478C5.11867 29.8869 5.59655 29.2541 6.15878 28.7056C8.44984 26.4978 11.4156 27.0181 13.5099 28.8041C13.6786 28.9447 13.7348 29.1416 13.7629 29.3666C14.1986 33.2338 11.6827 36.2994 7.77519 36.6791C5.62467 36.89 3.62877 36.5384 1.84371 35.2447C1.0847 34.6963 0.522484 33.9791 0.11487 33.1353C-0.194354 32.4884 0.14298 31.9963 0.859817 32.0384C1.09876 32.0525 1.35176 32.0666 1.60476 32.0806Z" fill="#E7326A"/>
</svg>
