<svg width="267" height="268" fill="none" xmlns="http://www.w3.org/2000/svg"><path d="M216.961 238.944c-.984.183-1.631.787-2.109 1.617-14.646 10.645-30.683 18.436-48.14 23.259-7.253 1.238-14.492 2.489-21.744 3.727-.858-.127-1.729-.309-2.502.323l-.422-.014c-6.789-.14-13.592-.281-20.381-.407-7.758-1.379-15.531-2.743-23.29-4.121-16.094-4.978-31.105-12.206-44.907-21.881-1.21-1.575-2.741-2.714-4.512-3.572a312.847 312.847 0 01-19.467-19.631c-.619-1.505-1.518-2.785-2.882-3.713-9.839-14.048-17.26-29.264-22.01-45.759-1.378-7.763-2.77-15.525-4.147-23.288 0-7.678-.014-15.356-.014-23.048v-.014c.716-.605.618-1.336.365-2.109 1.335-7.088 2.67-14.161 4.006-21.249C9.907 82.091 17.553 66.383 28.207 52.18c.408-.59.83-1.181 1.237-1.758 6.522-7.144 13.311-14.02 20.508-20.49.576-.421 1.166-.843 1.742-1.25 14.183-10.534 29.784-18.24 46.693-23.316 7.829-1.42 15.658-2.827 23.487-4.247 7.633-.056 15.251-.099 22.883-.155h.028c.281.534.703.563 1.195.324 6.971 1.18 13.943 2.376 20.914 3.557 17.387 4.922 33.397 12.643 48.015 23.274.084.59.435.83 1.012.787.646.492 1.279.999 1.925 1.49.253.17.52.352.773.521 6.845 6.483 13.578 13.092 19.748 20.236.38 1.28 1.35 2.081 2.348 2.855 9.642 13.823 16.838 28.842 21.955 44.873a54875.47 54875.47 0 004.09 23.316c.028 7.791.042 15.595.07 23.386-1.391 8.1-2.783 16.186-4.174 24.286-4.625 13.12-9.516 26.1-17.429 37.687-1.448 2.124-2.755 4.332-4.133 6.511-1.11 1.013-2.333 1.927-2.741 3.488-.492.618-.984 1.237-1.49 1.87-.196.253-.407.506-.604.745-5.566 5.569-11.118 11.138-16.684 16.693-.253.21-.492.421-.745.632-.885.169-1.476.661-1.869 1.449zM145.122 10.302c-2.558-1.027-5.214-.76-7.871-.605a46.478 46.478 0 00-10.738.084c-9.643.338-19.046 1.969-28.21 4.978-17.991 5.133-33.986 13.796-47.592 26.747-3.81 2.686-7.014 5.977-9.755 9.718-12.917 13.668-21.674 29.657-26.776 47.7-2.572 7.551-4.132 15.299-4.456 23.287-1.222 7.819-1.194 15.652-.07 23.484.225 7.341 1.49 14.499 3.922 21.446 4.483 18.45 13.324 34.565 25.946 48.67 3.163 4.359 6.888 8.184 11.245 11.377 13.634 12.825 29.53 21.628 47.536 26.634 7.604 2.573 15.363 4.289 23.417 4.514 7.772 1.266 15.545 1.294 23.318.056 8.026-.098 15.728-1.969 23.36-4.247 17.528-5.006 33.256-13.261 46.721-25.678 4.934-3.572 9.137-7.889 12.791-12.769 12.285-13.528 20.634-29.193 25.539-46.743 2.347-7.622 4.104-15.357 4.273-23.386 1.223-7.777 1.153-15.539-.07-23.316-.38-8.015-1.827-15.806-4.61-23.344-2.292-10.8-7.731-20.165-13.227-29.559-3.837-6.539-7.913-12.81-13.423-18.07-3.134-4.458-7.182-8.002-11.399-11.39-13.578-12.038-29.081-20.532-46.595-25.313-7.576-2.447-15.292-4.093-23.276-4.29v.015z" fill="#E7388C"/><path d="M213.756 71.249c1.476 2.222 3.331 4.05 5.51 5.568 1.799 3.15 1.054 5.682-1.617 8.016-1.785 1.547-3.275 3.445-4.905 5.175a35.136 35.136 0 00-6.663 6.651c-5.819 5.302-11.427 10.815-16.655 16.693-2.53 1.898-4.737 4.134-6.677 6.637-5.819 5.302-11.427 10.814-16.656 16.692-2.53 1.899-4.737 4.135-6.676 6.638-5.819 5.301-11.427 10.814-16.656 16.692-2.53 1.899-4.737 4.134-6.677 6.638-5.819 5.301-11.427 10.814-16.655 16.692-2.531 1.898-4.737 4.134-6.677 6.637-3.837 3.685-7.674 7.383-11.526 11.067-2.586.38-4.497-.689-6.254-2.545-2.15-2.264-4.526-4.331-6.817-6.497-4.119-4.711-8.504-9.154-13.24-13.247l-.071-.098c.028-.605-.281-.886-.871-.914l-.07-.07c-.029-.563-.296-.872-.872-.872-2.741-3.164-5.566-6.272-8.926-8.818a104.155 104.155 0 00-12.27-12.248c.042-.295-.084-.45-.38-.464.043-.591-.28-.844-.829-.872l-.07-.07c-.028-.563-.295-.872-.872-.872-2.558-2.658-5.116-5.302-7.674-7.959-.534-2.616.436-4.613 2.32-6.455 2.515-2.447 4.834-5.091 7.238-7.65 2.98-2.334 5.692-4.922 7.983-7.945 3.079-1.477 5.412-.521 7.731 1.842 9.727 9.9 19.636 19.603 29.334 29.531 2.052 2.095 3.346 2.419 5.341.07 2.474-2.925 5.257-5.611 7.9-8.395 4.582-3.895 8.827-8.114 12.692-12.727 3.935-3.15 7.449-6.707 10.626-10.617 4.582-3.895 8.827-8.114 12.692-12.726 3.95-3.136 7.422-6.736 10.64-10.604 4.554-3.923 8.855-8.1 12.693-12.726 3.963-3.122 7.421-6.736 10.64-10.603 4.54-3.938 8.855-8.086 12.692-12.727.52-.365 1.082-.66 1.532-1.097 4.976-4.725 5.763-4.725 10.542-.056 3.078 2.925 6.128 5.766 9.15 8.635z" fill="#E7388C"/></svg>