<svg width="212" height="39" fill="none" xmlns="http://www.w3.org/2000/svg"><path d="M165.975 22.764s-1.56 7.51 6.002 11.433c0 0-10.57-1.631-6.002-11.433z" fill="#E7388C"/><path d="M172.863 38.106c-6.452 0-11.709-5.259-11.709-11.714 0-6.454 5.257-11.714 11.709-11.714 6.451 0 11.708 5.26 11.708 11.714 0 6.469-5.257 11.714-11.708 11.714zm0-21.642c-5.468 0-9.924 4.458-9.924 9.928 0 5.47 4.456 9.928 9.924 9.928 5.467 0 9.923-4.457 9.923-9.928 0-5.47-4.456-9.928-9.923-9.928z" fill="#E7388C"/><path d="M176.868 14.088s9.207 1.195 9.404 12.318c0 0 3.261-10.364-9.404-12.318zm-15.461 4.767s-.225-9.267.647-10.519c.857-1.238 2.825-2.672 14.182-1.631 0 0-9.403-.59-11.68 3.01-2.277 3.6-3.149 9.14-3.149 9.14zm15.461-9.605s3.135-6.075 5.946-7.58c2.811-1.504 9.08-.646 10.317 1.702s1.897 4.64 5.285 5.555c3.387.914 4.512 2.053 4.652 3.037.141.984.183 2.124.183 2.124h-1.293s.646-3.01-4.456-4.177c0 0-3.078-.802-5.229-4.64.057 0-3.246-5.977-9.824-1.604-1.547 1.027-.802.183-5.581 5.583z" fill="#E7388C"/><path d="M16.958 19.698c-1.982 0-3.528.69-4.625 2.054-1.096 1.364-1.447 3.023-1.068 4.964.436 2.137.31 4.106-.38 5.92-.674 1.8-1.827 3.22-3.415 4.261-1.602 1.04-3.486 1.56-5.664 1.56L.794 33.776c1.967 0 3.513-.689 4.61-2.067C6.5 30.33 6.852 28.67 6.472 26.716c-.647-3.249-.07-6.019 1.743-8.283 1.813-2.278 4.385-3.403 7.688-3.403l1.055 4.668zm7.154-11.067v9.057c1.841-1.758 4.006-2.63 6.48-2.63a9.06 9.06 0 015.34 1.687c1.603 1.125 2.84 2.658 3.74 4.585.885 1.926 1.335 4.05 1.335 6.37v10.14H36.1V26.771c0-1.927-.576-3.572-1.742-4.936-1.167-1.364-2.587-2.039-4.245-2.039-1.659 0-3.079.675-4.245 2.039-1.167 1.364-1.743 2.995-1.743 4.936v11.067h-4.85V8.631h4.836zm37.388 7.2a11.813 11.813 0 014.427 4.416c1.083 1.87 1.603 3.895 1.56 6.09a13.038 13.038 0 01-1.026 4.696c-.632 1.49-1.49 2.784-2.558 3.867a12.023 12.023 0 01-3.809 2.588 11.691 11.691 0 01-4.666.956c-2.179 0-4.203-.534-6.072-1.617a11.813 11.813 0 01-4.428-4.416c-1.082-1.87-1.602-3.895-1.56-6.089.056-1.66.394-3.234 1.026-4.725a12.43 12.43 0 012.544-3.853c1.068-1.083 2.333-1.94 3.81-2.588a11.741 11.741 0 014.666-.956 12.25 12.25 0 016.086 1.631zM50.34 21.19c-1.392 1.42-2.109 3.136-2.15 5.147-.057 1.997.646 3.713 2.065 5.133 1.434 1.434 3.149 2.137 5.145 2.137 1.995 0 3.696-.717 5.088-2.137 1.391-1.42 2.108-3.136 2.15-5.147.056-1.997-.646-3.712-2.08-5.133-1.434-1.434-3.163-2.137-5.172-2.137-1.968 0-3.655.717-5.046 2.137zm37.697-5.359a11.814 11.814 0 014.427 4.416c1.083 1.87 1.603 3.895 1.56 6.09A13.038 13.038 0 0193 31.032c-.633 1.49-1.49 2.784-2.559 3.867a12.02 12.02 0 01-3.809 2.588 11.69 11.69 0 01-4.666.956c-2.179 0-4.203-.534-6.072-1.617a11.814 11.814 0 01-4.428-4.416c-1.082-1.87-1.602-3.895-1.56-6.089.056-1.66.394-3.234 1.026-4.725a12.43 12.43 0 012.544-3.853c1.054-1.083 2.334-1.94 3.81-2.588a11.741 11.741 0 014.666-.956c2.193.014 4.216.563 6.086 1.631zm-11.16 5.358c-1.392 1.42-2.109 3.136-2.15 5.147-.057 1.997.646 3.713 2.08 5.133 1.433 1.434 3.148 2.137 5.144 2.137s3.696-.717 5.088-2.137c1.391-1.42 2.108-3.136 2.15-5.147.057-1.997-.646-3.712-2.08-5.133-1.433-1.434-3.162-2.137-5.172-2.137-1.982 0-3.669.717-5.06 2.137zm28.083 17.269c-1.968 0-3.5-.773-4.638-2.32-1.125-1.547-1.687-3.375-1.687-5.485V19.206h-2.25v-3.515h2.25V8.603h4.835v7.088h4.16v3.515h-4.16V30.12c0 3.094 1.279 4.317 3.837 3.698l1.153 3.853c-1.153.52-2.319.788-3.5.788zm26.115-17.128c.97 1.94 1.448 4.064 1.448 6.37v10.14h-4.934V26.771c0-1.94-.576-3.6-1.742-4.95-1.167-1.364-2.587-2.04-4.245-2.04-1.673 0-3.092.676-4.245 2.04-1.167 1.364-1.743 3.01-1.743 4.95v11.067h-4.849V27.7c0-2.306.478-4.43 1.448-6.37.969-1.94 2.291-3.488 3.963-4.613 1.673-1.125 3.5-1.687 5.482-1.687 1.982 0 3.809.562 5.468 1.687 1.658 1.125 2.979 2.672 3.949 4.613zm8.574-12.699l-.014 9.225c.886-.843 1.996-1.533 3.303-2.053s2.629-.787 3.95-.787c3.472 0 6.325 1.125 8.574 3.389 2.249 2.264 3.415 5.034 3.5 8.353a10.818 10.818 0 01-1.561 5.878 11.553 11.553 0 01-4.427 4.275 12.396 12.396 0 01-6.1 1.561c-2.193 0-4.217-.52-6.058-1.561a11.75 11.75 0 01-4.386-4.275 11.255 11.255 0 01-1.616-5.878c0-12.572-.042-15.666-.056-18.113h4.891v-.014zm2.094 13.149c-1.433 1.378-2.122 3.037-2.08 4.964.056 1.94.773 3.6 2.165 4.964 1.391 1.364 3.092 2.053 5.074 2.053 2.01 0 3.739-.689 5.172-2.067 1.434-1.378 2.123-3.024 2.081-4.95-.043-1.94-.759-3.6-2.151-4.978-1.391-1.378-3.092-2.053-5.088-2.053-2.038-.015-3.753.675-5.173 2.067zm51.163-6.09l5.201 6.835 5.172-6.834h6.592l-8.56 10.42 9.895 11.714h-6.648l-6.451-7.622-6.466 7.622h-6.648l9.867-11.714-8.56-10.42h6.606z" fill="#020203"/></svg>