<svg width="90" height="91" fill="none" xmlns="http://www.w3.org/2000/svg"><path d="M72.783 80.542c-.323.056-.548.267-.703.535a49.775 49.775 0 01-16.093 7.776c-2.418.422-4.85.83-7.267 1.252-.295-.042-.577-.099-.83.112h-.14c-2.277-.042-4.54-.098-6.817-.14-2.6-.464-5.187-.914-7.787-1.378-5.383-1.66-10.401-4.079-15.011-7.313a4.146 4.146 0 00-1.504-1.195 102.427 102.427 0 01-6.508-6.567c-.21-.507-.506-.929-.97-1.238-3.289-4.697-5.763-9.787-7.365-15.3l-1.392-7.79v-7.707c.24-.197.211-.45.127-.703.45-2.362.885-4.739 1.335-7.102 1.701-5.68 4.26-10.926 7.815-15.665.14-.197.281-.394.408-.59a98.521 98.521 0 016.859-6.85l.59-.421c4.737-3.516 9.952-6.09 15.602-7.79 2.614-.479 5.229-.943 7.857-1.421 2.544-.014 5.102-.028 7.646-.056h.015c.098.183.238.197.407.112 2.333.394 4.667.788 6.986 1.196 5.805 1.645 11.16 4.218 16.051 7.776.028.197.14.281.338.267.21.17.421.338.646.506l.253.17c2.291 2.165 4.54 4.373 6.606 6.763.127.436.45.69.787.957 3.22 4.626 5.637 9.646 7.337 15.004.45 2.602.914 5.203 1.364 7.79.014 2.603.014 5.218.028 7.82l-1.392 8.114c-1.546 4.387-3.176 8.718-5.819 12.6-.478.703-.927 1.448-1.377 2.18-.365.337-.773.646-.914 1.167l-.492.618a3.08 3.08 0 00-.196.253c-1.856 1.857-3.711 3.727-5.58 5.583-.085.07-.17.14-.253.211a.791.791 0 00-.647.464zM48.762 4.112c-.857-.337-1.743-.252-2.629-.196a15.279 15.279 0 00-3.584.028c-3.218.112-6.367.66-9.431 1.66-6.016 1.715-11.357 4.612-15.91 8.943a14.3 14.3 0 00-3.262 3.248c-4.315 4.57-7.253 9.914-8.953 15.947-.858 2.532-1.378 5.119-1.49 7.777-.408 2.616-.394 5.231-.028 7.847a23.51 23.51 0 001.307 7.172c1.504 6.173 4.455 11.559 8.672 16.27a17.17 17.17 0 003.753 3.797c4.554 4.289 9.867 7.228 15.897 8.901 2.544.858 5.13 1.435 7.829 1.505 2.6.422 5.2.436 7.8.014 2.685-.028 5.258-.66 7.816-1.42 5.86-1.674 11.118-4.43 15.616-8.578 1.644-1.196 3.05-2.644 4.272-4.261 4.105-4.514 6.902-9.76 8.532-15.624.787-2.545 1.378-5.133 1.434-7.818.407-2.602.38-5.204-.028-7.791-.127-2.672-.605-5.288-1.546-7.805-.773-3.614-2.587-6.736-4.428-9.886-1.279-2.194-2.642-4.275-4.484-6.032-1.054-1.491-2.403-2.672-3.809-3.811-4.54-4.022-9.726-6.863-15.573-8.466-2.53-.802-5.116-1.35-7.773-1.42z" fill="#E7388C"/><path d="M71.701 24.49a6.805 6.805 0 001.842 1.856c.604 1.054.351 1.898-.549 2.671-.59.52-1.096 1.154-1.644 1.73a11.082 11.082 0 00-2.22 2.222c-1.94 1.772-3.824 3.614-5.567 5.583a11.533 11.533 0 00-2.235 2.222c-1.94 1.771-3.823 3.614-5.566 5.582a11.54 11.54 0 00-2.235 2.222c-1.94 1.772-3.823 3.614-5.566 5.583a11.536 11.536 0 00-2.235 2.222c-1.94 1.772-3.823 3.614-5.566 5.583a11.53 11.53 0 00-2.234 2.222c-1.28 1.237-2.573 2.46-3.852 3.698-.857.127-1.504-.239-2.094-.844-.717-.759-1.518-1.448-2.277-2.165-1.377-1.575-2.84-3.066-4.427-4.43l-.029-.028c.014-.197-.098-.295-.295-.31l-.028-.028c-.014-.182-.098-.295-.295-.295-.914-1.055-1.856-2.095-2.98-2.953a34.198 34.198 0 00-4.104-4.092c.014-.099-.028-.155-.127-.155.014-.197-.098-.281-.28-.295l-.029-.028c-.014-.183-.098-.296-.295-.296-.857-.886-1.715-1.771-2.558-2.657-.183-.872.14-1.547.773-2.152.843-.816 1.616-1.702 2.417-2.56a14.484 14.484 0 002.671-2.657c1.026-.492 1.813-.169 2.586.619 3.247 3.304 6.564 6.553 9.811 9.871.689.704 1.125.816 1.785.029.83-.985 1.757-1.87 2.643-2.813a35.731 35.731 0 004.245-4.26 23.542 23.542 0 003.556-3.545 35.746 35.746 0 004.244-4.26c1.322-1.041 2.488-2.25 3.556-3.544 1.518-1.308 2.952-2.7 4.245-4.261 1.322-1.04 2.488-2.25 3.556-3.544 1.518-1.308 2.952-2.7 4.245-4.247.169-.126.366-.225.52-.366 1.659-1.575 1.926-1.575 3.528-.014 1.04.97 2.066 1.927 3.064 2.883z" fill="#E7388C"/></svg>