<svg width="43" height="37" fill="none" xmlns="http://www.w3.org/2000/svg"><path d="M14.522 30.351c-.042-.07-.07-.098-.056-.127.183-1.392-.59-2.193-1.729-2.728-.478-.225-.408-.407-.183-.787 2.558-4.106 5.693-7.735 9.122-11.124C27.552 9.792 34.046 4.785 40.946.3c.085-.056.17-.098.24-.154.309-.197.618-.211.885.07s.225.577.028.886a106.12 106.12 0 01-3.176 4.711c-3.57 5.034-7.422 9.844-11.737 14.273-3.682 3.77-7.618 7.214-12.144 9.943-.169.112-.337.21-.52.323z" fill="#E7326A"/><path d="M1.605 32.08c1.391.198 2.347-.393 3.092-1.532.422-.661.9-1.294 1.462-1.842 2.29-2.208 5.257-1.688 7.35.098.17.14.226.338.254.563.436 3.867-2.08 6.932-5.988 7.312-2.15.211-4.146-.14-5.931-1.434-.76-.549-1.322-1.266-1.73-2.11-.308-.647.029-1.139.746-1.097.239.015.492.029.745.043z" fill="#E7326A"/></svg>